<?xml version="1.0" encoding="UTF-8" standalone="no"?>
<!-- Created with Inkscape (http://www.inkscape.org/) -->

<svg
   version="1.1"
   id="svg2"
   width="512"
   height="512"
   viewBox="0 0 512 512"
   sodipodi:docname="bla.svg"
   inkscape:version="1.1.2 (0a00cf5339, 2022-02-04)"
   inkscape:export-filename="/home/locxter/Downloads/image10.png"
   inkscape:export-xdpi="96"
   inkscape:export-ydpi="96"
   xmlns:inkscape="http://www.inkscape.org/namespaces/inkscape"
   xmlns:sodipodi="http://sodipodi.sourceforge.net/DTD/sodipodi-0.dtd"
   xmlns="http://www.w3.org/2000/svg"
   xmlns:svg="http://www.w3.org/2000/svg">
  <defs
     id="defs6">
    <clipPath
       clipPathUnits="userSpaceOnUse"
       id="clipPath1021">
      <rect
         style="fill:#000000;fill-opacity:1;stroke-width:62.5502"
         id="rect1023"
         width="540"
         height="540"
         x="41"
         y="33" />
    </clipPath>
    <clipPath
       clipPathUnits="userSpaceOnUse"
       id="clipPath1487">
      <rect
         style="fill:#000000;fill-opacity:1;stroke-width:60.1844"
         id="rect1489"
         width="350"
         height="350"
         x="136"
         y="128" />
    </clipPath>
  </defs>
  <sodipodi:namedview
     id="namedview4"
     pagecolor="#ffffff"
     bordercolor="#666666"
     borderopacity="1.0"
     inkscape:pageshadow="2"
     inkscape:pageopacity="0.0"
     inkscape:pagecheckerboard="0"
     showgrid="false"
     inkscape:snap-bbox="true"
     inkscape:bbox-paths="true"
     inkscape:bbox-nodes="true"
     inkscape:snap-bbox-edge-midpoints="true"
     inkscape:snap-bbox-midpoints="true"
     inkscape:object-paths="true"
     inkscape:snap-intersection-paths="true"
     inkscape:snap-smooth-nodes="true"
     inkscape:snap-midpoints="true"
     inkscape:snap-object-midpoints="true"
     inkscape:snap-center="true"
     inkscape:snap-text-baseline="true"
     inkscape:snap-page="true"
     inkscape:zoom="0.94707424"
     inkscape:cx="20.589727"
     inkscape:cy="297.23119"
     inkscape:window-width="1904"
     inkscape:window-height="1031"
     inkscape:window-x="6"
     inkscape:window-y="39"
     inkscape:window-maximized="1"
     inkscape:current-layer="g8"
     fit-margin-top="0"
     fit-margin-left="0"
     fit-margin-right="0"
     fit-margin-bottom="0" />
  <g
     inkscape:groupmode="layer"
     inkscape:label="Image"
     id="g8"
     transform="translate(-41,-33)">
    <path
       id="path1673"
       style="fill:#ffffff;fill-opacity:1;stroke-width:1.33794"
       d="m 357.67991,100.62836 c -4.88104,0.079 -6.71227,1.00691 -12.09623,4.28033 -5.79557,3.52366 -8.08005,4.27628 -9.8986,3.25859 -1.32742,-0.74287 -6.67342,-0.99716 -12.1877,-0.5801 -11.75742,0.8892 -22.97365,5.57936 -30.22624,12.63977 -4.78556,4.65872 -5.3931,4.865 -14.71724,4.94928 -11.20632,0.10141 -18.07443,3.30921 -27.17669,12.69205 -5.24413,5.40581 -5.38184,5.45506 -15.11965,5.45624 -12.20498,0.002 -26.0816,4.02078 -32.69566,9.47266 -9.68879,7.9863 -16.5774,27.97233 -14.95241,43.37557 0.88191,8.35967 3.82141,20.07079 5.83515,23.24913 0.76117,1.20141 -0.16368,4.69458 -2.65496,10.03448 -10.04529,21.53149 -9.92726,47.86474 0.28482,63.93058 6.92368,10.89247 21.32064,18.55417 39.3409,20.9339 7.97978,1.05379 7.97944,1.05408 -22.76048,32.10771 -16.90697,17.07949 -31.46482,32.43683 -32.35074,34.12767 -2.13383,4.07256 -0.42496,6.66083 3.67932,5.57382 6.43033,-1.70304 24.2709,-15.53061 61.92367,-48.00085 19.25125,-16.60149 23.66621,-22.39657 20.94435,-27.48242 -1.34071,-2.50515 -5.85996,-4.24522 -22.78923,-8.78017 -22.97749,-6.15512 -27.27362,-7.87102 -32.29583,-12.89325 -8.58038,-8.58037 -11.03517,-23.92213 -7.14173,-44.60639 1.31881,-7.00636 2.83029,-12.73907 3.36049,-12.73907 0.53022,0 1.69402,0.88125 2.58703,1.95725 0.893,1.07599 5.03148,3.23562 9.19565,4.80033 10.3841,3.90196 23.64841,3.28282 32.99095,-1.54173 5.7478,-2.96822 7.93689,-3.37097 15.54035,-2.85358 9.44602,0.64279 11.11935,0.11306 21.51662,-6.79939 4.14882,-2.75826 7.08072,-6.00911 8.62601,-9.56933 1.28738,-2.96601 2.48967,-5.61013 2.67062,-5.87436 0.18096,-0.26425 2.31941,0.93989 4.75333,2.67586 7.83447,5.58783 26.57067,3.26773 35.99604,-4.45802 2.629,-2.1549 6.55901,-9.57733 6.55901,-12.3863 0,-1.48003 1.35038,-2.07484 4.71411,-2.07484 5.74198,0 20.02751,-6.42948 25.05744,-11.27833 6.57362,-6.33696 14.20392,-25.76825 12.37846,-31.51975 -1.08729,-3.42577 -4.3619,-6.70533 -6.69488,-6.70533 -3.15917,0 -6.2655,4.19151 -5.4667,7.37431 0.41059,1.6359 -0.13151,5.92981 -1.20465,9.5432 -3.00067,10.10436 -12.74998,18.11203 -24.2944,19.95395 -6.23812,0.99532 -10.60795,-2.12323 -12.57184,-8.97091 -3.00444,-10.47584 0.051,-40.15626 4.91009,-47.69772 3.14823,-4.88609 15.78912,-12.31314 20.95743,-12.31314 2.49333,0 8.09244,1.7847 12.44119,3.96677 16.72052,8.3899 24.46913,18.28054 25.62709,32.70611 0.88769,11.05878 -1.84732,33.93677 -4.57038,38.22768 -1.1761,1.85323 -9.13347,10.29213 -17.68054,18.75453 -14.41205,14.26929 -16.26879,15.64934 -25.57484,19.01586 -5.51896,1.99654 -12.74378,4.30227 -16.05516,5.12174 -7.47766,1.85057 -32.88953,11.08122 -41.00285,14.89494 -8.60234,4.04359 -18.528,14.85638 -24.28918,26.45808 -4.39406,8.84871 -4.94686,11.09702 -4.93884,20.06896 0.006,8.24729 0.69466,11.57746 3.74986,18.12999 4.30889,9.2413 10.16152,15.85883 17.25982,19.51758 5.71619,2.94636 9.20964,3.23675 11.49261,0.9538 2.8129,-2.81293 1.78022,-5.03099 -5.77767,-12.40983 -4.06045,-3.96427 -8.56339,-9.80646 -10.00573,-12.98472 -5.65879,-12.4693 -1.83895,-28.2927 9.81761,-40.6762 6.07615,-6.45513 8.58294,-7.97206 20.94957,-12.66852 7.72653,-2.93432 19.7679,-6.89133 26.7586,-8.79324 22.43186,-6.10289 30.73703,-11.42584 53.90133,-34.55622 11.19563,-11.17923 23.96617,-22.72968 28.38135,-25.66631 27.81962,-18.50354 45.06612,-23.44115 65.11694,-18.64739 13.29749,3.17918 13.55395,4.67554 2.08267,12.13807 -5.11066,3.32468 -14.32728,12.05437 -24.3336,23.04531 -8.85883,9.73057 -28.44981,29.27184 -43.53498,43.42784 -30.60699,28.72176 -48.02754,45.91166 -58.91596,58.132 -4.02091,4.51281 -11.22502,12.54449 -16.00811,17.8478 -19.41169,21.52287 -26.7586,39.62146 -26.7586,65.91916 0,19.49187 5.72321,36.73494 17.41398,52.46933 21.00839,28.27478 56.05547,41.24931 88.80511,32.87336 16.21041,-4.14592 27.95861,-10.97231 40.49068,-23.52352 17.4951,-17.52187 25.82395,-37.78656 25.8649,-62.93236 0.0404,-24.81962 -8.26422,-44.8569 -26.07134,-62.91147 -8.66348,-8.78385 -12.91466,-11.91983 -22.31365,-16.45755 -14.93362,-7.20981 -19.14982,-7.89083 -26.29869,-4.24377 -5.10158,2.60268 -5.57382,3.28412 -5.57382,8.07201 0,6.31545 2.23163,8.8119 8.96569,10.03187 16.51073,2.99108 35.45277,18.42535 43.59771,35.52569 21.96805,46.12212 -12.08948,98.9744 -61.85313,95.98602 -27.19639,-1.63318 -49.28812,-19.20747 -58.43253,-46.48262 -3.39475,-10.1255 -3.19903,-29.82837 0.40766,-40.86695 4.78761,-14.65292 19.25793,-34.82559 41.22496,-57.47089 7.85205,-8.09447 18.84913,-20.40859 24.43811,-27.36485 10.06699,-12.52969 24.28774,-27.26116 48.19162,-49.92674 6.80646,-6.45387 16.52753,-17.33063 21.60026,-24.16897 7.10197,-9.57385 11.5552,-14.04562 19.36862,-19.44702 C 511.1629,177.37205 513,175.06981 513,168.89152 c 0,-4.84047 -5.71941,-9.95431 -15.6057,-13.95158 -9.40931,-3.8044 -32.12248,-4.67377 -42.69617,-1.63321 -7.93533,2.28188 -27.32999,11.53633 -37.0962,17.70144 -2.85923,1.80497 -5.4269,3.05275 -5.70709,2.77255 -0.28021,-0.28019 0.13338,-4.38773 0.91981,-9.12772 4.25634,-25.65594 -4.66701,-43.58986 -28.76288,-57.80535 -8.70113,-5.13329 -10.45366,-5.65979 -20.23096,-6.07034 -2.5493,-0.10702 -4.51387,-0.1753 -6.1409,-0.14895 z m -30.21839,17.64134 c 1.96833,-0.0874 1.46534,1.05393 -0.55136,5.61304 -5.80763,13.12904 -8.44273,40.30966 -5.01725,51.74286 0.854,2.85043 3.56331,7.52944 6.0207,10.40033 5.1367,6.00109 5.60737,9.67689 1.73773,13.54651 -3.578,3.578 -8.30847,5.29685 -14.5683,5.29685 -4.34418,0 -5.95387,-0.93164 -11.0954,-6.42834 -6.57612,-7.03039 -8.08872,-10.7137 -10.45257,-25.45986 -2.62297,-16.36243 1.28523,-34.24539 9.53798,-43.64473 4.07602,-4.64235 13.24798,-9.17359 21.56106,-10.65117 1.24112,-0.22061 2.17131,-0.38645 2.82741,-0.41549 z m -46.93991,17.02724 c 2.13048,0 2.49302,0.60695 1.80568,3.01034 -4.10732,14.36194 -4.12035,23.83126 -0.06,43.14825 3.31992,15.79462 3.68872,20.96154 1.95464,27.40143 -2.30149,8.54709 -7.7345,13.40542 -14.99162,13.40542 -3.20424,0 -7.07884,-0.87673 -8.61031,-1.94939 -3.47111,-2.43128 -7.46804,-11.59083 -11.08495,-25.39978 -5.76212,-21.99917 -2.71219,-33.53011 13.20684,-49.92149 5.5634,-5.7285 12.83826,-9.69478 17.77982,-9.69478 z m -43.03327,17.85039 c 0.49668,-0.0201 0.82862,0.0264 0.95381,0.15157 0.27336,0.27335 -0.41749,1.90489 -1.53391,3.62441 -2.93667,4.52318 -5.33236,20.29017 -4.30384,28.32649 1.30881,10.22658 5.94071,26.20452 9.43868,32.56502 3.07204,5.58607 3.07183,5.58536 -0.45732,6.9222 -7.19327,2.7248 -12.8675,2.79578 -20.25449,0.25349 -12.11406,-4.16921 -16.76427,-11.89079 -18.30246,-30.38566 -1.41126,-16.96854 3.93396,-29.9149 14.62578,-35.42639 4.83179,-2.49071 16.3571,-5.89091 19.83375,-6.03113 z m -70.40595,148.05292 c -25.85837,-10e-6 -42.32748,6.77419 -60.34794,24.82225 -12.3561,12.37501 -19.86822,25.89487 -23.949476,43.09859 -2.99293,12.61619 -2.103261,36.22387 1.779556,47.17249 9.19448,25.92624 26.74388,45.31605 49.7647,54.98839 13.32375,5.59802 18.56438,6.46631 36.16071,5.97887 13.25811,-0.36728 16.78565,-0.97437 25.49645,-4.37964 35.34488,-13.81707 57.4552,-46.20461 57.4552,-84.16153 0,-18.26464 -3.84754,-28.65051 -10.6172,-28.65051 -5.95273,0 -11.83518,13.56273 -10.42906,24.04615 2.03083,15.14094 -6.99203,39.67197 -18.97666,51.59392 -14.5041,14.42829 -29.60159,20.13389 -50.40493,19.04721 -10.5429,-0.5507 -13.52554,-1.29455 -22.44429,-5.58428 -26.89939,-12.93808 -42.2632,-42.63856 -37.07531,-71.6681 4.97377,-27.83163 24.97391,-48.60147 52.32039,-54.33773 11.33103,-2.37681 20.4389,-1.7472 32.36117,2.23686 12.69078,4.24085 15.76248,3.08149 15.76248,-5.94491 0,-4.46718 -0.84135,-6.06651 -5.41964,-10.29317 -6.85643,-6.32983 -13.30471,-7.96486 -31.43615,-7.96486 z m 221.43003,22.7448 c -1.269,0 -8.23106,4.77512 -13.74514,9.42822 -0.93525,0.78921 22.50703,37.61067 28.26898,44.40254 1.82147,2.14699 6.29838,2.15922 10.06323,0.0261 0.61151,-0.34648 0.76734,-1.99882 0.34755,-3.67146 -1.54165,-6.14233 -23.42419,-50.18544 -24.93462,-50.18544 z" />
  </g>
</svg>
